<svg width="33" height="10" viewBox="0 0 33 10" fill="none" xmlns="http://www.w3.org/2000/svg">
<path d="M4.56445 8.78241V5.51874C4.56445 5.26874 4.51367 5.05194 4.41211 4.86835C4.31445 4.68085 4.16602 4.53632 3.9668 4.43475C3.76758 4.33319 3.52148 4.28241 3.22852 4.28241C2.95508 4.28241 2.71484 4.32928 2.50781 4.42303C2.30469 4.51678 2.14453 4.63983 2.02734 4.79218C1.91406 4.94452 1.85742 5.10858 1.85742 5.28436H0.773438C0.773438 5.0578 0.832031 4.83319 0.949219 4.61053C1.06641 4.38788 1.23438 4.18671 1.45312 4.00702C1.67578 3.82343 1.94141 3.67889 2.25 3.57343C2.5625 3.46405 2.91016 3.40936 3.29297 3.40936C3.75391 3.40936 4.16016 3.48749 4.51172 3.64374C4.86719 3.79999 5.14453 4.03632 5.34375 4.35272C5.54688 4.66522 5.64844 5.0578 5.64844 5.53046V8.48358C5.64844 8.69452 5.66602 8.91913 5.70117 9.15741C5.74023 9.39569 5.79688 9.60077 5.87109 9.77264V9.86639H4.74023C4.68555 9.74139 4.64258 9.57538 4.61133 9.36835C4.58008 9.15741 4.56445 8.9621 4.56445 8.78241ZM4.75195 6.02264L4.76367 6.78436H3.66797C3.35938 6.78436 3.08398 6.80975 2.8418 6.86053C2.59961 6.90741 2.39648 6.97968 2.23242 7.07733C2.06836 7.17499 1.94336 7.29803 1.85742 7.44647C1.77148 7.591 1.72852 7.76093 1.72852 7.95624C1.72852 8.15546 1.77344 8.3371 1.86328 8.50116C1.95312 8.66522 2.08789 8.79608 2.26758 8.89374C2.45117 8.98749 2.67578 9.03436 2.94141 9.03436C3.27344 9.03436 3.56641 8.96405 3.82031 8.82343C4.07422 8.6828 4.27539 8.51093 4.42383 8.3078C4.57617 8.10468 4.6582 7.90741 4.66992 7.716L5.13281 8.23749C5.10547 8.40155 5.03125 8.58319 4.91016 8.78241C4.78906 8.98163 4.62695 9.17303 4.42383 9.35663C4.22461 9.53632 3.98633 9.68671 3.70898 9.8078C3.43555 9.92499 3.12695 9.98358 2.7832 9.98358C2.35352 9.98358 1.97656 9.8996 1.65234 9.73163C1.33203 9.56366 1.08203 9.33905 0.902344 9.0578C0.726562 8.77264 0.638672 8.45428 0.638672 8.10272C0.638672 7.76288 0.705078 7.46405 0.837891 7.20624C0.970703 6.94452 1.16211 6.72772 1.41211 6.55585C1.66211 6.38007 1.96289 6.24725 2.31445 6.15741C2.66602 6.06757 3.05859 6.02264 3.49219 6.02264H4.75195ZM11.3496 8.63593V0.866394H12.4395V9.86639H11.4434L11.3496 8.63593ZM7.08398 6.76678V6.64374C7.08398 6.15936 7.14258 5.71991 7.25977 5.32538C7.38086 4.92694 7.55078 4.58514 7.76953 4.29999C7.99219 4.01483 8.25586 3.79608 8.56055 3.64374C8.86914 3.48749 9.21289 3.40936 9.5918 3.40936C9.99023 3.40936 10.3379 3.47968 10.6348 3.6203C10.9355 3.75702 11.1895 3.95819 11.3965 4.22382C11.6074 4.48553 11.7734 4.80194 11.8945 5.17303C12.0156 5.54413 12.0996 5.96405 12.1465 6.4328V6.97186C12.1035 7.43671 12.0195 7.85468 11.8945 8.22577C11.7734 8.59686 11.6074 8.91327 11.3965 9.17499C11.1895 9.43671 10.9355 9.63788 10.6348 9.7785C10.334 9.91522 9.98242 9.98358 9.58008 9.98358C9.20898 9.98358 8.86914 9.9035 8.56055 9.74335C8.25586 9.58319 7.99219 9.35858 7.76953 9.06952C7.55078 8.78046 7.38086 8.44061 7.25977 8.04999C7.14258 7.65546 7.08398 7.22772 7.08398 6.76678ZM8.17383 6.64374V6.76678C8.17383 7.08319 8.20508 7.38007 8.26758 7.65741C8.33398 7.93475 8.43555 8.17889 8.57227 8.38983C8.70898 8.60077 8.88281 8.76678 9.09375 8.88788C9.30469 9.00507 9.55664 9.06366 9.84961 9.06366C10.209 9.06366 10.5039 8.98749 10.7344 8.83514C10.9688 8.6828 11.1562 8.48163 11.2969 8.23163C11.4375 7.98163 11.5469 7.71014 11.625 7.41718V6.00507C11.5781 5.79022 11.5098 5.58319 11.4199 5.38397C11.334 5.18085 11.2207 5.00116 11.0801 4.84491C10.9434 4.68475 10.7734 4.5578 10.5703 4.46405C10.3711 4.3703 10.1348 4.32343 9.86133 4.32343C9.56445 4.32343 9.30859 4.38593 9.09375 4.51093C8.88281 4.63202 8.70898 4.79999 8.57227 5.01483C8.43555 5.22577 8.33398 5.47186 8.26758 5.75311C8.20508 6.03046 8.17383 6.32733 8.17383 6.64374ZM15.2051 4.78632V9.86639H14.1152V3.52655H15.1465L15.2051 4.78632ZM14.9824 6.45624L14.4785 6.43866C14.4824 6.00507 14.5391 5.60468 14.6484 5.23749C14.7578 4.86639 14.9199 4.54413 15.1348 4.27069C15.3496 3.99725 15.6172 3.78632 15.9375 3.63788C16.2578 3.48553 16.6289 3.40936 17.0508 3.40936C17.3477 3.40936 17.6211 3.45233 17.8711 3.53827C18.1211 3.6203 18.3379 3.75116 18.5215 3.93085C18.7051 4.11053 18.8477 4.341 18.9492 4.62225C19.0508 4.9035 19.1016 5.24335 19.1016 5.64178V9.86639H18.0176V5.69452C18.0176 5.36249 17.9609 5.09686 17.8477 4.89764C17.7383 4.69843 17.582 4.55389 17.3789 4.46405C17.1758 4.3703 16.9375 4.32343 16.6641 4.32343C16.3438 4.32343 16.0762 4.38007 15.8613 4.49335C15.6465 4.60663 15.4746 4.76288 15.3457 4.9621C15.2168 5.16132 15.123 5.38983 15.0645 5.64764C15.0098 5.90155 14.9824 6.17108 14.9824 6.45624ZM19.0898 5.85858L18.3633 6.08124C18.3672 5.73358 18.4238 5.3996 18.5332 5.07928C18.6465 4.75897 18.8086 4.47382 19.0195 4.22382C19.2344 3.97382 19.498 3.77655 19.8105 3.63202C20.123 3.48358 20.4805 3.40936 20.8828 3.40936C21.2227 3.40936 21.5234 3.45428 21.7852 3.54413C22.0508 3.63397 22.2734 3.77264 22.4531 3.96014C22.6367 4.14374 22.7754 4.38007 22.8691 4.66913C22.9629 4.95819 23.0098 5.30194 23.0098 5.70038V9.86639H21.9199V5.68866C21.9199 5.33319 21.8633 5.0578 21.75 4.86249C21.6406 4.66327 21.4844 4.5246 21.2812 4.44647C21.082 4.36444 20.8438 4.32343 20.5664 4.32343C20.3281 4.32343 20.1172 4.36444 19.9336 4.44647C19.75 4.5285 19.5957 4.64178 19.4707 4.78632C19.3457 4.92694 19.25 5.08905 19.1836 5.27264C19.1211 5.45624 19.0898 5.65155 19.0898 5.85858ZM25.8281 3.52655V9.86639H24.7383V3.52655H25.8281ZM24.6562 1.84491C24.6562 1.66913 24.709 1.52069 24.8145 1.3996C24.9238 1.2785 25.084 1.21796 25.2949 1.21796C25.502 1.21796 25.6602 1.2785 25.7695 1.3996C25.8828 1.52069 25.9395 1.66913 25.9395 1.84491C25.9395 2.01288 25.8828 2.15741 25.7695 2.2785C25.6602 2.39569 25.502 2.45428 25.2949 2.45428C25.084 2.45428 24.9238 2.39569 24.8145 2.2785C24.709 2.15741 24.6562 2.01288 24.6562 1.84491ZM28.6523 4.88007V9.86639H27.5684V3.52655H28.5938L28.6523 4.88007ZM28.3945 6.45624L27.9434 6.43866C27.9473 6.00507 28.0117 5.60468 28.1367 5.23749C28.2617 4.86639 28.4375 4.54413 28.6641 4.27069C28.8906 3.99725 29.1602 3.78632 29.4727 3.63788C29.7891 3.48553 30.1387 3.40936 30.5215 3.40936C30.834 3.40936 31.1152 3.45233 31.3652 3.53827C31.6152 3.6203 31.8281 3.75311 32.0039 3.93671C32.1836 4.1203 32.3203 4.35858 32.4141 4.65155C32.5078 4.94061 32.5547 5.29413 32.5547 5.7121V9.86639H31.4648V5.70038C31.4648 5.36835 31.416 5.10272 31.3184 4.9035C31.2207 4.70038 31.0781 4.55389 30.8906 4.46405C30.7031 4.3703 30.4727 4.32343 30.1992 4.32343C29.9297 4.32343 29.6836 4.38007 29.4609 4.49335C29.2422 4.60663 29.0527 4.76288 28.8926 4.9621C28.7363 5.16132 28.6133 5.38983 28.5234 5.64764C28.4375 5.90155 28.3945 6.17108 28.3945 6.45624Z" fill="#82F3FF"/>
</svg>
